HIERARCHY
ROOT Hips
{
	OFFSET -3.350880 105.458916 -1.111724
	CHANNELS 6 Xposition Yposition Zposition Xrotation Yrotation Zrotation
	JOINT Chest
	{
		OFFSET 0.400637 13.519600 1.792797
		CHANNELS 3 Xrotation Yrotation Zrotation
		JOINT Chest2
		{
			OFFSET -0.374465 21.333649 1.949785
			CHANNELS 3 Xrotation Yrotation Zrotation
			JOINT Chest3
			{
				OFFSET -0.453522 14.912704 0.474656
				CHANNELS 3 Xrotation Yrotation Zrotation
				JOINT Neck
				{
					OFFSET 0.670042 17.200409 1.520793
					CHANNELS 3 Xrotation Yrotation Zrotation
					JOINT Head
					{
						OFFSET -0.177182 10.439621 0.900321
						CHANNELS 3 Xrotation Yrotation Zrotation
						End Site
						{
							OFFSET -0.175025 10.445679 0.827522
						}
					}
				}
				JOINT LeftCollar
				{
					OFFSET 4.904739 12.798706 3.733742
					CHANNELS 3 Xrotation Yrotation Zrotation
					JOINT LeftUpArm
					{
						OFFSET 13.666269 -6.096848 -9.195712
						CHANNELS 3 Xrotation Yrotation Zrotation
						JOINT LeftLowArm
						{
							OFFSET 3.935015 -33.527527 0.386258
							CHANNELS 3 Xrotation Yrotation Zrotation
							JOINT LeftHand
							{
								OFFSET -0.867182 -27.838875 11.188942
								CHANNELS 3 Xrotation Yrotation Zrotation
								End Site
								{
									OFFSET -0.189526 -6.084351 2.445407
								}
							}
						}
					}
				}
				JOINT RightCollar
				{
					OFFSET -3.486202 13.072983 4.330385
					CHANNELS 3 Xrotation Yrotation Zrotation
					JOINT RightUpArm
					{
						OFFSET -14.738829 -5.848816 -7.553450
						CHANNELS 3 Xrotation Yrotation Zrotation
						JOINT RightLowArm
						{
							OFFSET -5.955406 -33.229965 0.194371
							CHANNELS 3 Xrotation Yrotation Zrotation
							JOINT RightHand
							{
								OFFSET 1.922871 -27.896988 10.909440
								CHANNELS 3 Xrotation Yrotation Zrotation
								End Site
								{
									OFFSET 0.420265 -6.097160 2.384373
								}
							}
						}
					}
				}
			}
		}
	}
	JOINT LeftUpLeg
	{
		OFFSET 10.007866 -0.236626 -0.453629
		CHANNELS 3 Xrotation Yrotation Zrotation
		JOINT LeftLowLeg
		{
			OFFSET 2.248373 -47.148045 -3.999482
			CHANNELS 3 Xrotation Yrotation Zrotation
			JOINT LeftFoot
			{
				OFFSET -0.088301 -43.280716 -11.284483
				CHANNELS 3 Xrotation Yrotation Zrotation
				JOINT LeftToe
				{
					OFFSET 1.496662 -15.104879 18.142828
					CHANNELS 3 Xrotation Yrotation Zrotation
					End Site
					{
						OFFSET 2.743847 -0.136629 23.494926
					}
				}
			}
		}
	}
	JOINT RightUpLeg
	{
		OFFSET -10.007875 0.236427 0.453603
		CHANNELS 3 Xrotation Yrotation Zrotation
		JOINT RightLowLeg
		{
			OFFSET -1.474138 -47.347557 0.221057
			CHANNELS 3 Xrotation Yrotation Zrotation
			JOINT RightFoot
			{
				OFFSET -0.377707 -43.164074 -11.717548
				CHANNELS 3 Xrotation Yrotation Zrotation
				JOINT RightToe
				{
					OFFSET -0.725383 -16.825943 16.610796
					CHANNELS 3 Xrotation Yrotation Zrotation
					End Site
					{
						OFFSET -2.719655 -2.519167 23.362648
					}
				}
			}
		}
	}
}
MOTION
Frames: 14
Frame Time: 0.033333
5.730339 96.455078 -3.498096 3.626005 -57.227638 11.481156 10.129379 0.567326 -10.405380 -9.083708 5.959051 -7.762728 -4.275821 9.028823 0.712757 2.005691 9.767101 -11.238248 -0.000000 0.000003 0.000002 -0.230144 -20.469899 1.237084 -37.524328 -25.508422 3.919351 5.677936 5.879842 12.068970 0.000002 0.000008 0.000001 4.858644 24.459869 -25.941458 -36.844868 12.202640 22.124289 -50.536235 4.870532 -4.929723 0.000002 0.000000 -0.000002 -32.334259 2.279253 -6.889568 36.613530 -3.917263 5.849122 31.080953 3.634114 -7.102473 -0.000003 -0.000008 0.000002 -25.598289 4.458984 -13.090268 30.195778 7.565750 26.077932 -4.361194 -17.439541 -6.081562 -0.000002 -0.000000 -0.000001 
5.721115 96.369530 -3.447048 4.134985 -57.892697 11.853738 9.704174 0.621396 -10.292536 -9.071278 6.080322 -7.938043 -4.200511 9.501931 0.837145 1.672866 9.946238 -11.213689 0.000001 -0.000000 0.000001 -0.327687 -20.345626 1.022191 -37.582689 -25.136901 3.437902 5.440208 5.933075 12.260348 -0.000002 0.000001 0.000002 4.957056 24.689686 -26.200797 -37.143399 12.176583 22.288866 -50.170048 4.975789 -5.625205 -0.000005 -0.000001 -0.000001 -33.287412 1.992512 -6.048951 37.268999 -3.870284 6.593045 31.732506 2.750659 -7.430766 -0.000001 0.000002 -0.000001 -25.377684 4.454586 -13.284384 30.920523 7.643214 24.596983 -5.557325 -16.917718 -6.066294 -0.000001 0.000003 -0.000000 
5.711162 96.286919 -3.391755 3.411631 -57.634755 11.679423 10.043289 0.583523 -10.469201 -8.766634 6.251628 -8.214301 -4.570513 9.438946 1.101303 2.052626 9.949707 -11.320831 -0.000001 0.000005 -0.000000 -0.354856 -20.990824 0.788477 -37.381864 -24.884751 3.437644 5.134739 5.917480 12.182790 -0.000002 0.000002 0.000000 4.802775 24.448809 -26.237967 -37.019772 12.095953 22.280822 -49.716841 4.952811 -5.982356 -0.000000 -0.000001 -0.000001 -33.331637 2.058746 -6.188750 37.455145 -3.770595 7.307519 32.623224 2.763972 -7.631626 -0.000003 0.000003 -0.000001 -24.707473 4.561727 -14.146561 31.361001 7.672858 23.930261 -6.256672 -17.207207 -6.340950 0.000000 0.000002 0.000001 
5.699625 96.212029 -3.335780 3.591174 -57.737904 11.879901 10.331398 0.571760 -10.683183 -9.177564 6.184326 -8.027275 -4.400911 9.341540 1.030514 2.054871 10.324450 -11.762888 0.000001 0.000005 0.000001 -0.402701 -20.956591 0.998340 -37.335528 -25.041719 3.906547 4.961784 6.077157 12.129771 0.000001 0.000004 -0.000000 4.865861 24.751245 -26.423258 -37.688465 12.273654 22.508672 -49.594782 5.039559 -6.899411 0.000005 0.000004 -0.000001 -33.729428 2.098553 -6.323145 37.964886 -3.721317 7.586249 32.771630 2.439257 -7.718751 -0.000002 -0.000000 0.000002 -24.726542 4.570545 -14.141949 31.689059 7.685186 23.131470 -6.377130 -17.297118 -6.365718 -0.000001 0.000002 0.000002 
5.689857 96.147141 -3.280456 3.980619 -58.094331 12.037444 10.259913 0.558010 -10.468574 -9.505481 6.226411 -7.970774 -4.164232 9.715892 1.105269 1.740325 10.691430 -11.954467 -0.000001 0.000001 0.000002 -0.302768 -20.965850 1.162695 -37.455320 -25.511668 4.172569 5.017946 5.896582 11.939323 -0.000000 0.000003 0.000002 4.907004 24.547893 -26.578614 -38.275564 12.661362 22.624220 -49.205943 5.272231 -7.694038 0.000000 -0.000003 0.000001 -33.409454 2.071211 -6.371248 38.068326 -3.947219 5.843494 31.344285 3.772153 -7.157527 -0.000004 0.000001 0.000000 -25.284870 4.533859 -13.544827 31.655652 7.741555 23.543730 -5.562335 -17.065996 -6.023026 -0.000002 0.000001 0.000002 
5.679207 96.085442 -3.226215 4.153656 -58.525316 12.107175 10.222072 0.558831 -10.482429 -9.437104 6.312575 -8.101421 -4.323494 9.680141 1.359365 1.823342 11.032689 -12.368940 -0.000001 0.000001 -0.000000 -0.354773 -20.731892 1.081008 -37.233106 -25.469968 4.448955 4.852381 5.716368 11.375378 -0.000001 0.000002 0.000001 4.923750 24.496269 -26.595669 -37.920725 12.349673 22.725175 -49.655298 5.155017 -7.038967 0.000003 0.000000 -0.000001 -33.782877 2.016964 -6.159413 38.588984 -3.809734 6.328210 30.310392 3.175933 -7.005716 -0.000004 0.000004 -0.000004 -24.883774 4.440827 -13.546645 31.378162 7.528262 22.967594 -5.547456 -16.061031 -5.657085 -0.000000 0.000002 0.000001 
5.669821 96.025810 -3.169498 4.294330 -59.000301 12.360553 10.228552 0.551524 -10.446341 -9.809567 6.047213 -7.711521 -4.228458 10.127460 1.161792 2.015567 11.518499 -12.819334 -0.000000 -0.000000 -0.000000 -0.416949 -20.643796 1.132715 -36.804321 -25.428665 5.079230 4.800048 5.673664 10.806491 -0.000002 0.000000 0.000000 5.307455 25.262235 -27.017607 -38.024862 12.315164 22.622017 -49.668302 5.134072 -7.459668 -0.000001 -0.000001 -0.000001 -34.446877 1.874311 -5.804333 38.505075 -3.511883 8.293847 30.987021 1.509507 -7.460444 -0.000002 0.000004 -0.000000 -24.313851 4.522243 -14.226954 31.540154 7.537499 22.029501 -6.245630 -15.915591 -5.636152 -0.000001 0.000001 -0.000001 
5.657365 95.976387 -3.116080 4.029512 -58.864920 12.418256 10.558458 0.496310 -10.668889 -9.940472 5.944029 -7.523107 -4.239345 10.032774 1.058540 1.918344 11.850303 -12.996485 -0.000002 0.000000 -0.000002 -0.293171 -20.587292 1.153872 -36.864853 -25.713391 5.220320 4.868462 5.688214 10.835798 -0.000000 0.000003 0.000003 5.386929 25.180228 -27.048555 -38.322713 12.577244 22.815654 -49.314007 5.181184 -8.020811 -0.000000 0.000000 -0.000001 -34.065302 2.063295 -6.396807 39.554869 -4.117379 5.407005 29.520860 3.224158 -6.801551 -0.000002 0.000001 0.000001 -24.802312 4.390274 -13.239687 30.418603 7.350345 23.006784 -4.004337 -14.677559 -4.793327 0.000001 0.000000 -0.000003 
5.648226 95.926521 -3.056180 4.258919 -58.981764 12.666968 10.560295 0.503050 -10.604319 -9.848611 6.115965 -7.768723 -4.422143 9.831684 1.279028 1.981878 12.130366 -13.290171 0.000000 -0.000000 0.000001 -0.231344 -20.693007 1.313980 -36.861428 -25.444463 4.904193 4.642896 5.830284 11.270026 -0.000002 0.000007 -0.000000 5.358448 25.080407 -27.208398 -38.520986 12.552527 23.055076 -49.238946 5.149019 -8.113404 0.000002 0.000003 -0.000000 -34.447834 1.888014 -5.892386 39.548561 -4.181002 5.341899 30.187288 2.926482 -7.017455 -0.000005 0.000003 -0.000001 -25.019046 4.428629 -13.259378 30.443116 7.426320 23.192068 -3.440047 -14.547123 -4.662200 -0.000001 0.000000 -0.000000 
5.641221 95.879189 -3.003138 4.514792 -58.938481 12.783261 10.748711 0.484373 -10.821876 -9.828109 6.203371 -7.878143 -4.371302 9.701473 1.427364 1.357273 12.120658 -13.249021 0.000001 0.000003 0.000001 -0.143164 -20.849620 1.535841 -37.235333 -25.851638 5.011042 4.605340 5.978222 11.885494 0.000003 0.000003 0.000003 5.201840 24.812986 -27.117490 -39.046166 12.744625 23.331573 -48.935826 5.228043 -8.792819 0.000003 -0.000002 -0.000001 -34.607172 1.972354 -6.149732 40.327800 -4.342972 4.577418 29.322320 3.636885 -6.671421 -0.000002 0.000001 -0.000001 -24.854633 4.387075 -13.202464 29.851475 7.145101 23.175952 -2.864754 -13.811983 -4.427532 0.000001 -0.000000 -0.000001 
5.635694 95.838776 -2.960014 4.663825 -58.871736 12.891775 10.498215 0.498541 -10.307332 -9.712812 6.348451 -8.101581 -4.154568 9.763318 1.221051 1.275950 12.149879 -13.380405 -0.000001 0.000003 0.000001 -0.266476 -20.618866 1.450805 -37.471811 -25.967430 5.030357 4.764773 6.039631 11.925869 0.000001 0.000002 0.000004 5.272741 25.103216 -27.267811 -39.594668 12.831002 23.569163 -47.838669 5.370130 -10.155235 0.000003 0.000007 -0.000003 -34.923563 1.793775 -5.575521 40.186736 -4.175308 4.688981 30.113215 3.111095 -6.929726 -0.000007 0.000001 0.000000 -25.063581 4.431478 -13.417113 30.590416 7.212977 22.866287 -3.660423 -14.108750 -4.726987 0.000001 0.000001 -0.000001 
5.631412 95.804520 -2.916566 4.099419 -58.400392 12.838102 11.069203 0.464846 -10.894354 -9.857010 6.093373 -7.790519 -4.168060 9.605624 1.034451 1.569630 12.114775 -13.634710 0.000001 0.000000 0.000002 -0.332533 -21.084850 1.594146 -37.467979 -25.957434 5.537746 4.974216 6.366697 11.720022 0.000000 0.000004 0.000003 5.170700 25.117204 -27.537465 -39.832799 12.531974 23.913575 -46.868833 5.120356 -10.732473 0.000002 0.000002 -0.000001 -34.570248 1.975340 -5.886411 40.191405 -4.312625 3.505990 29.809326 3.417511 -6.807610 -0.000001 0.000002 -0.000000 -25.609128 4.498380 -13.479009 31.074092 7.427224 23.740860 -3.394494 -14.261638 -4.807135 -0.000001 0.000001 -0.000003 
5.626620 95.770203 -2.874985 4.618918 -58.893033 13.060360 10.965828 0.494984 -10.998929 -10.235776 5.879310 -7.424281 -3.883845 10.173118 0.871921 1.267700 12.254096 -13.583542 -0.000001 0.000001 -0.000000 -0.298563 -20.985208 1.694847 -37.645735 -26.501038 6.103049 5.367554 6.498302 11.527873 0.000002 0.000005 0.000002 5.433220 25.445538 -28.014386 -40.773385 12.842601 24.341445 -45.768541 5.179440 -12.119411 0.000002 -0.000003 -0.000000 -34.740644 1.819486 -5.486221 39.977213 -4.324023 3.304270 30.123262 3.863858 -6.786373 -0.000004 0.000002 0.000000 -25.893257 4.457000 -13.169593 31.456433 7.558508 23.442883 -2.737425 -13.922039 -4.553336 0.000001 0.000001 -0.000000 
5.624132 95.741623 -2.834364 4.223448 -58.427180 12.795196 11.277614 0.457985 -10.910531 -10.145227 5.972692 -7.539211 -4.005732 9.755912 0.853131 1.295421 12.269453 -13.686489 0.000000 -0.000000 0.000000 -0.256993 -21.355136 1.584452 -37.846795 -26.455585 5.794864 5.558383 6.710443 12.079305 -0.000002 0.000004 -0.000000 5.565242 25.513951 -28.333790 -42.031444 13.456796 24.463023 -44.122271 5.225921 -13.632563 0.000001 -0.000001 -0.000000 -34.113339 1.952458 -5.751296 39.344451 -4.313137 2.759341 30.539285 4.189047 -6.810811 0.000001 0.000004 -0.000003 -26.243871 4.550701 -13.357005 32.182472 7.838012 23.871368 -3.312545 -14.520023 -4.899671 -0.000000 0.000001 -0.000000 
